<!-- Generated by IcoMoon.io -->
<svg version="1.1" xmlns="http://www.w3.org/2000/svg" width="32" height="32" viewBox="0 0 32 32">
<title>instagram</title>
<path fill="#afb1b8" d="M31.975 9.41c-0.074-1.701-0.349-2.869-0.743-3.882-0.424-1.112-1.054-2.059-1.85-2.838l-0.001-0.001c-0.78-0.792-1.724-1.42-2.779-1.827l-0.054-0.018c-1.019-0.394-2.181-0.667-3.882-0.743-1.712-0.082-2.256-0.101-6.603-0.101-4.345 0-4.889 0.019-6.597 0.094-1.7 0.074-2.869 0.349-3.881 0.743-1.112 0.424-2.060 1.054-2.839 1.85l-0.001 0.001c-0.792 0.78-1.419 1.725-1.825 2.779l-0.018 0.054c-0.395 1.019-0.669 2.181-0.744 3.882-0.082 1.712-0.101 2.256-0.101 6.603 0 4.345 0.019 4.889 0.094 6.597 0.075 1.701 0.35 2.869 0.744 3.882 0.427 1.111 1.056 2.058 1.849 2.838l0.001 0.001c0.8 0.813 1.77 1.444 2.833 1.844 1.019 0.395 2.183 0.671 3.882 0.744 1.708 0.075 2.252 0.094 6.597 0.094 4.347 0 4.891-0.019 6.597-0.094 1.701-0.074 2.869-0.349 3.882-0.743 2.158-0.85 3.834-2.526 4.665-4.629l0.019-0.055c0.394-1.019 0.669-2.183 0.744-3.882 0.075-1.708 0.093-2.252 0.093-6.597s-0.006-4.889-0.080-6.597zM29.094 22.479c-0.070 1.564-0.333 2.407-0.551 2.97-0.552 1.4-1.64 2.487-3.005 3.025l-0.036 0.012c-0.56 0.219-1.412 0.482-2.969 0.551-1.688 0.075-2.194 0.094-6.465 0.094-4.27 0-4.783-0.019-6.465-0.094-1.564-0.069-2.407-0.331-2.97-0.551-0.721-0.269-1.335-0.676-1.836-1.193l-0.001-0.001c-0.517-0.504-0.924-1.117-1.184-1.803l-0.011-0.034c-0.218-0.563-0.48-1.413-0.549-2.97-0.075-1.688-0.094-2.196-0.094-6.465 0-4.271 0.019-4.785 0.094-6.465 0.069-1.564 0.331-2.407 0.549-2.97 0.269-0.722 0.678-1.337 1.199-1.837l0.002-0.002c0.504-0.517 1.119-0.924 1.806-1.183l0.034-0.011c0.56-0.219 1.412-0.48 2.969-0.551 1.688-0.074 2.196-0.093 6.465-0.093 4.276 0 4.783 0.019 6.465 0.093 1.564 0.069 2.407 0.331 2.97 0.551 0.693 0.256 1.325 0.663 1.837 1.194 0.531 0.52 0.938 1.144 1.195 1.84 0.218 0.56 0.48 1.412 0.549 2.969 0.075 1.688 0.094 2.194 0.094 6.465 0 4.27-0.019 4.769-0.094 6.459z"></path>
<path fill="#afb1b8" d="M16.063 7.784c-4.54 0.002-8.22 3.682-8.221 8.223v0c0.091 4.472 3.738 8.062 8.223 8.062s8.132-3.59 8.222-8.053l0-0.009c-0.001-4.541-3.682-8.222-8.223-8.223h-0zM16.063 21.339c-2.946-0-5.333-2.388-5.333-5.334s2.388-5.334 5.334-5.334c0 0 0.001 0 0.001 0h-0c2.946 0 5.335 2.388 5.335 5.335s-2.388 5.335-5.335 5.335v0zM26.531 7.459c0 1.061-0.86 1.92-1.92 1.92s-1.92-0.86-1.92-1.92v0c0-1.061 0.86-1.92 1.92-1.92s1.92 0.86 1.92 1.92v0z"></path>
</svg>
