<!-- Generated by IcoMoon.io -->
<svg version="1.1" xmlns="http://www.w3.org/2000/svg" width="32" height="32" viewBox="0 0 32 32">
<title>linkedin</title>
<path fill="#afb1b8" d="M31.999 32.007h0.008v-11.74c0-5.742-1.237-10.165-7.949-10.165-3.228 0-5.393 1.77-6.278 3.45h-0.093v-2.914h-6.366v21.368h6.629v-10.58c0-2.786 0.528-5.481 3.978-5.481 3.399 0 3.449 3.18 3.449 5.659v10.404h6.622zM0.528 10.637h6.637v21.369h-6.637v-21.369zM3.844 0c-2.123 0-3.844 1.721-3.844 3.844v0c0 2.12 1.722 3.879 3.844 3.879 2.12 0 3.842-1.757 3.842-3.879s-1.72-3.842-3.842-3.844h-0z"></path>
</svg>
