<!-- Generated by IcoMoon.io -->
<svg version="1.1" xmlns="http://www.w3.org/2000/svg" width="32" height="32" viewBox="0 0 32 32">
<title>twitter</title>
<path fill="#afb1b8" d="M32.007 6.080c-1.1 0.493-2.377 0.857-3.714 1.028l-0.068 0.007c1.36-0.817 2.382-2.078 2.874-3.58l0.013-0.046c-1.198 0.723-2.592 1.273-4.077 1.573l-0.084 0.014c-1.2-1.279-2.901-2.076-4.788-2.076-3.623 0-6.56 2.937-6.56 6.56 0 0.001 0 0.003 0 0.004v-0c0 0.52 0.043 1.021 0.152 1.496-5.456-0.266-10.282-2.881-13.525-6.862-0.564 0.949-0.899 2.092-0.903 3.313v0.001c0 2.272 1.171 4.287 2.914 5.452-1.091-0.030-2.108-0.325-2.995-0.823l0.033 0.017v0.072c0.003 3.166 2.237 5.809 5.214 6.442l0.043 0.008c-0.499 0.136-1.072 0.215-1.663 0.215-0.020 0-0.041-0-0.061-0l0.003 0c-0.419 0-0.843-0.024-1.242-0.112 0.85 2.599 3.261 4.51 6.131 4.571-2.215 1.746-5.047 2.801-8.124 2.801-0.004 0-0.008 0-0.013 0h0.001c-0.018 0-0.040 0-0.062 0-0.532 0-1.055-0.034-1.569-0.099l0.061 0.006c2.827 1.846 6.288 2.945 10.006 2.945 0.021 0 0.042-0 0.063-0h-0.003c12.075 0 18.676-10.002 18.676-18.673 0-0.288-0.010-0.57-0.024-0.848 1.299-0.936 2.391-2.064 3.259-3.355l0.030-0.047z"></path>
</svg>
